<?xml version="1.0" encoding="utf-8"?>
<!-- Generator: Adobe Illustrator 16.0.0, SVG Export Plug-In . SVG Version: 6.00 Build 0)  -->
<!DOCTYPE svg PUBLIC "-//W3C//DTD SVG 1.1//EN" "http://www.w3.org/Graphics/SVG/1.1/DTD/svg11.dtd">
<svg version="1.1" id="圖層_1" xmlns="http://www.w3.org/2000/svg" xmlns:xlink="http://www.w3.org/1999/xlink" x="0px" y="0px"
	 width="284.5px" height="84.5px" viewBox="14.5 11.5 284.5 84.5" enable-background="new 14.5 11.5 284.5 84.5"
	 xml:space="preserve">
<line fill="none" stroke="#000000" stroke-width="0.5" stroke-linecap="round" stroke-linejoin="round" stroke-miterlimit="10" x1="22.258" y1="46.514" x2="86.104" y2="42.08"/>
<line fill="none" stroke="#000000" stroke-width="0.5" stroke-linecap="round" stroke-linejoin="round" stroke-miterlimit="10" x1="25.024" y1="57.635" x2="83.505" y2="31.633"/>
<line fill="none" stroke="#000000" stroke-width="0.5" stroke-linecap="round" stroke-linejoin="round" stroke-miterlimit="10" x1="31.429" y1="67.141" x2="77.488" y2="22.703"/>
<line fill="none" stroke="#000000" stroke-width="0.5" stroke-linecap="round" stroke-linejoin="round" stroke-miterlimit="10" x1="40.697" y1="73.881" x2="68.781" y2="16.372"/>
<line fill="none" stroke="#000000" stroke-width="0.5" stroke-linecap="round" stroke-linejoin="round" stroke-miterlimit="10" x1="51.713" y1="77.045" x2="58.434" y2="13.398"/>
<line fill="none" stroke="#000000" stroke-width="0.5" stroke-linecap="round" stroke-linejoin="round" stroke-miterlimit="10" x1="63.146" y1="76.251" x2="47.693" y2="14.145"/>
<line fill="none" stroke="#000000" stroke-width="0.5" stroke-linecap="round" stroke-linejoin="round" stroke-miterlimit="10" x1="73.618" y1="71.595" x2="37.855" y2="18.519"/>
<line fill="none" stroke="#000000" stroke-width="0.5" stroke-linecap="round" stroke-linejoin="round" stroke-miterlimit="10" x1="81.866" y1="63.639" x2="30.107" y2="25.993"/>
<line fill="none" stroke="#000000" stroke-width="0.5" stroke-linecap="round" stroke-linejoin="round" stroke-miterlimit="10" x1="86.896" y1="53.339" x2="25.383" y2="35.668"/>
<path d="M24.749,56.794l26.11-18.738c2.175-2.942,6.28-3.646,9.312-1.599l31.578,21.337l-37,23L24.749,56.794z"/>
<path fill="none" stroke="#FFFFFF" stroke-width="1.688" stroke-miterlimit="10" d="M24.749,56.794l26.11-18.738
	c2.175-2.942,6.28-3.646,9.312-1.599l31.578,21.337l-37,23L24.749,56.794z"/>
<path d="M56.749,19.662c19.372,0,35.133,15.76,35.133,35.132S76.121,89.927,56.749,89.927S21.617,74.166,21.617,54.794
	S37.377,19.662,56.749,19.662 M56.749,18.794c-19.882,0-36,16.118-36,36s16.118,36,36,36s36-16.118,36-36
	S76.631,18.794,56.749,18.794"/>
<path d="M54.006,93.914c-9.502-2.191-19.005-8.359-26.17-17.009c-7.165-8.65-11.458-19.132-11.847-28.876
	c9.502,2.193,19.005,8.36,26.17,17.009S53.617,84.17,54.006,93.914"/>
<path fill="#FFFFFF" d="M16.574,48.734c9.149,2.304,18.251,8.312,25.163,16.655c6.911,8.342,11.122,18.401,11.684,27.819
	c-9.149-2.304-18.25-8.312-25.162-16.653C21.346,68.213,17.136,58.154,16.574,48.734 M15.42,47.342
	c0.201,9.73,4.248,20.564,11.993,29.913c7.746,9.351,17.639,15.341,27.162,17.347c-0.201-9.729-4.248-20.563-11.993-29.912
	C34.837,55.34,24.943,49.349,15.42,47.342"/>
<path d="M48.979,93.641c-1.692,0-3.399-0.08-5.088-0.238c0.588-14.783,7.266-28.791,18.399-38.531
	c9.847-8.615,22.47-13.359,35.544-13.359c1.692,0,3.4,0.08,5.09,0.238c-0.588,14.782-7.266,28.789-18.4,38.53
	C74.678,88.896,62.055,93.641,48.979,93.641L48.979,93.641z"/>
<path fill="#FFFFFF" d="M97.835,42.354c1.396,0,2.808,0.056,4.208,0.166c-0.785,14.253-7.316,27.712-18.075,37.125
	c-9.692,8.479-22.118,13.15-34.988,13.15c-1.397,0-2.808-0.056-4.208-0.166c0.785-14.254,7.316-27.712,18.075-37.125
	C72.539,47.024,84.965,42.354,97.835,42.354 M97.835,40.666c-12.82,0-25.694,4.464-36.101,13.568
	c-12.021,10.519-18.34,25.125-18.713,39.927c1.979,0.215,3.969,0.321,5.959,0.321c12.82,0,25.694-4.463,36.1-13.567
	c12.022-10.519,18.342-25.125,18.714-39.927C101.814,40.773,99.825,40.666,97.835,40.666"/>
<path d="M212.446,47.725h-0.864c-0.577-1.577-1.424-2.807-2.538-3.692c-1.116-0.885-2.482-1.328-4.097-1.328
	c-2.152,0-3.748,0.51-4.789,1.527c-1.037,1.019-1.556,2.39-1.556,4.119c0,2.074,1.5,3.936,4.498,5.587
	c5.462,2.996,8.288,4.571,8.482,4.723c3.038,2.382,4.558,5.454,4.558,9.218c0,3.687-1.423,6.719-4.269,9.101
	c-2.847,2.381-6.52,3.571-11.02,3.571c-1.692,0-3.336-0.201-4.932-0.606c-1.597-0.405-3.049-1.028-4.356-1.873
	c0.462-1.604,0.809-2.902,1.039-3.894c0.231-0.991,0.441-2.116,0.633-3.377h1.098c0.421,1.981,1.344,3.524,2.769,4.631
	c1.422,1.105,3.154,1.657,5.192,1.657c1.924,0,3.526-0.518,4.816-1.555c1.288-1.036,1.933-2.517,1.933-4.436
	c0-2.457-1.481-4.492-4.443-6.106c-2.769-1.457-5.518-2.917-8.249-4.376c-3.001-2.266-4.499-5.355-4.499-9.273
	c0-3.496,1.114-6.337,3.345-8.526c2.424-2.381,5.749-3.572,9.981-3.572c1.923,0,3.739,0.29,5.452,0.867
	c1.71,0.575,2.933,1.21,3.663,1.903c-0.422,1.114-0.75,2.037-0.98,2.769C212.928,46.089,212.64,47.071,212.446,47.725z"/>
<path d="M250.928,51.877v27.98c-0.847-0.078-1.588-0.145-2.223-0.201c-0.633-0.057-1.163-0.086-1.585-0.086
	c-0.887,0-1.646,0.037-2.28,0.114c-0.633,0.078-1.163,0.136-1.587,0.173v-4.21c-1.615,1.73-2.904,2.884-3.865,3.462
	c-1.384,0.845-3.019,1.269-4.905,1.269c-1.614,0-3.085-0.279-4.413-0.837c-1.327-0.558-2.433-1.47-3.318-2.74
	c-0.574-0.807-0.971-1.787-1.183-2.942c-0.21-1.152-0.314-2.403-0.314-3.749v-2.252v-15.98c0.653,0.079,1.393,0.145,2.221,0.202
	c0.826,0.058,1.414,0.085,1.761,0.085c0.843,0,1.613-0.037,2.306-0.115c0.693-0.077,1.25-0.134,1.672-0.173v15.923
	c0,1.23,0.029,2.182,0.087,2.855c0.058,0.672,0.241,1.318,0.549,1.931c0.385,0.964,0.913,1.704,1.587,2.223
	c0.672,0.518,1.508,0.778,2.509,0.778c2.193,0,3.655-0.981,4.386-2.942c0.421-1.155,0.633-3.058,0.633-5.712V51.877
	c0.653,0.079,1.394,0.145,2.222,0.202c0.827,0.058,1.412,0.085,1.759,0.085c0.846,0,1.617-0.037,2.309-0.115
	C249.945,51.973,250.502,51.916,250.928,51.877z"/>
<path d="M261.37,72.531h1.439c0.538,1.5,1.385,2.691,2.538,3.575c1.154,0.888,2.5,1.328,4.039,1.328c1.075,0,2.086-0.336,3.028-1.01
	c0.942-0.672,1.415-1.508,1.415-2.51c0-1.422-1.134-2.632-3.405-3.634c-3.807-1.691-5.94-2.69-6.403-3
	c-2.344-1.654-3.52-3.903-3.52-6.75c0-2.848,0.961-5.087,2.886-6.722c1.923-1.634,4.269-2.452,7.037-2.452
	c1.462,0,2.944,0.241,4.442,0.721c1.5,0.482,2.807,1.146,3.924,1.99l-1.385,5.076h-1.616c-0.229-1.307-0.874-2.441-1.931-3.403
	c-1.061-0.96-2.242-1.441-3.549-1.441c-1.153,0-2.154,0.28-3,0.837c-0.846,0.56-1.27,1.395-1.27,2.511
	c0,1.423,1.173,2.616,3.52,3.576c3.73,1.499,5.902,2.463,6.52,2.886c2.345,1.614,3.517,3.961,3.517,7.037
	c0,2.732-0.988,4.953-2.97,6.663c-1.981,1.712-4.702,2.567-8.163,2.567c-3,0-5.654-0.787-7.962-2.365L261.37,72.531z"/>
<path d="M288.945,41.32c0-1.191,0.44-2.25,1.328-3.173c0.882-0.923,1.94-1.384,3.172-1.384c1.232,0,2.309,0.442,3.231,1.328
	c0.924,0.885,1.383,1.96,1.383,3.229c0,1.231-0.452,2.299-1.354,3.202c-0.906,0.905-1.992,1.356-3.261,1.356
	c-1.27,0-2.337-0.452-3.201-1.356C289.379,43.618,288.945,42.552,288.945,41.32z M289.521,79.857v-27.98
	c0.652,0.079,1.394,0.145,2.223,0.202c0.827,0.058,1.414,0.085,1.76,0.085c0.844,0,1.615-0.037,2.306-0.115
	c0.692-0.077,1.25-0.134,1.674-0.173v27.98c-0.654-0.077-1.135-0.115-1.441-0.115c-1.347-0.117-2.192-0.172-2.538-0.172
	c-0.848,0-1.615,0.036-2.308,0.114C290.502,79.762,289.945,79.82,289.521,79.857z"/>
<path fill="#231815" d="M257.138,47.669c-10.976-1.42-11.756-9.566-19.138-9.566s-14.764,5.339-14.764,5.339
	s10.571-2.845,13.807-0.558C241.233,45.848,257.138,47.669,257.138,47.669z"/>
</svg>
